<svg width="31" height="35" viewBox="0 0 31 35" fill="none" xmlns="http://www.w3.org/2000/svg">
<path id="Vector" d="M2.21429 31.7188C2.21429 32.589 2.56422 33.4236 3.18711 34.0389C3.81 34.6543 4.65482 35 5.53571 35H25.4643C26.3452 35 27.19 34.6543 27.8129 34.0389C28.4358 33.4236 28.7857 32.589 28.7857 31.7188V8.75001H2.21429V31.7188ZM21.0357 14.2188C21.0357 13.9287 21.1524 13.6505 21.36 13.4454C21.5676 13.2402 21.8492 13.125 22.1429 13.125C22.4365 13.125 22.7181 13.2402 22.9257 13.4454C23.1334 13.6505 23.25 13.9287 23.25 14.2188V29.5313C23.25 29.8213 23.1334 30.0995 22.9257 30.3047C22.7181 30.5098 22.4365 30.625 22.1429 30.625C21.8492 30.625 21.5676 30.5098 21.36 30.3047C21.1524 30.0995 21.0357 29.8213 21.0357 29.5313V14.2188ZM14.3929 14.2188C14.3929 13.9287 14.5095 13.6505 14.7171 13.4454C14.9248 13.2402 15.2064 13.125 15.5 13.125C15.7936 13.125 16.0752 13.2402 16.2829 13.4454C16.4905 13.6505 16.6071 13.9287 16.6071 14.2188V29.5313C16.6071 29.8213 16.4905 30.0995 16.2829 30.3047C16.0752 30.5098 15.7936 30.625 15.5 30.625C15.2064 30.625 14.9248 30.5098 14.7171 30.3047C14.5095 30.0995 14.3929 29.8213 14.3929 29.5313V14.2188ZM7.75 14.2188C7.75 13.9287 7.86665 13.6505 8.07428 13.4454C8.2819 13.2402 8.56351 13.125 8.85714 13.125C9.15078 13.125 9.43238 13.2402 9.64001 13.4454C9.84764 13.6505 9.96429 13.9287 9.96429 14.2188V29.5313C9.96429 29.8213 9.84764 30.0995 9.64001 30.3047C9.43238 30.5098 9.15078 30.625 8.85714 30.625C8.56351 30.625 8.2819 30.5098 8.07428 30.3047C7.86665 30.0995 7.75 29.8213 7.75 29.5313V14.2188ZM29.8929 2.18751H21.5893L20.9388 0.909191C20.8011 0.6359 20.5888 0.406014 20.326 0.245394C20.0632 0.0847736 19.7602 -0.00020699 19.4511 1.19853e-05H11.542C11.2336 -0.00115905 10.9312 0.0835047 10.6693 0.244303C10.4074 0.405102 10.1966 0.635532 10.0612 0.909191L9.41072 2.18751H1.10714C0.81351 2.18751 0.531904 2.30275 0.324275 2.50786C0.116645 2.71298 0 2.99118 0 3.28126L0 5.46876C0 5.75884 0.116645 6.03704 0.324275 6.24216C0.531904 6.44728 0.81351 6.56251 1.10714 6.56251H29.8929C30.1865 6.56251 30.4681 6.44728 30.6757 6.24216C30.8834 6.03704 31 5.75884 31 5.46876V3.28126C31 2.99118 30.8834 2.71298 30.6757 2.50786C30.4681 2.30275 30.1865 2.18751 29.8929 2.18751Z" fill="#EDF8FF"/>
</svg>
